<?xml version="1.0" encoding="UTF-8" standalone="no"?>
<svg width="65px" height="58px" viewBox="0 0 65 58" version="1.1" xmlns="http://www.w3.org/2000/svg" xmlns:xlink="http://www.w3.org/1999/xlink">
    <!-- Generator: Sketch 47.1 (45422) - http://www.bohemiancoding.com/sketch -->
    <title>learn</title>
    <desc>Created with Sketch.</desc>
    <defs></defs>
    <g id="Page-1" stroke="none" stroke-width="1" fill="none" fill-rule="evenodd">
        <g id="25-Design-Shape-Icons" transform="translate(-75.000000, -399.000000)">
            <g id="learn" transform="translate(75.000000, 399.000000)">
                <path d="M60.235,27.691 C60.235,12.504 47.923,0.191 32.735,0.191 C17.547,0.191 5.235,12.504 5.235,27.691 C5.235,37.087 9.95,45.378 17.139,50.338 L48.33,50.338 C55.52,45.378 60.235,37.087 60.235,27.691" id="Fill-489" fill="#FFFFFF"></path>
                <path d="M53.529,51.089 L11.941,51.089 C11.527,51.089 11.191,50.753 11.191,50.339 C11.191,49.924 11.527,49.589 11.941,49.589 L53.529,49.589 C53.943,49.589 54.279,49.924 54.279,50.339 C54.279,50.753 53.943,51.089 53.529,51.089" id="Fill-490" fill="#2D346A"></path>
                <path d="M44.36,54.324 L21.11,54.324 C20.696,54.324 20.36,53.988 20.36,53.574 C20.36,53.16 20.696,52.824 21.11,52.824 L44.36,52.824 C44.774,52.824 45.11,53.16 45.11,53.574 C45.11,53.988 44.774,54.324 44.36,54.324" id="Fill-491" fill="#FFFFFF"></path>
                <path d="M33.048,57.559 L28.376,57.559 C27.962,57.559 27.626,57.223 27.626,56.809 C27.626,56.395 27.962,56.059 28.376,56.059 L33.048,56.059 C33.462,56.059 33.798,56.395 33.798,56.809 C33.798,57.223 33.462,57.559 33.048,57.559" id="Fill-492" fill="#FFFFFF"></path>
                <path d="M37.149,57.559 L35.901,57.559 C35.487,57.559 35.151,57.223 35.151,56.809 C35.151,56.395 35.487,56.059 35.901,56.059 L37.149,56.059 C37.563,56.059 37.899,56.395 37.899,56.809 C37.899,57.223 37.563,57.559 37.149,57.559" id="Fill-493" fill="#FFFFFF"></path>
                <path d="M38.058,11.299 L24.16,25.198 C22.611,26.746 22.312,29.051 23.222,30.915 L21.642,32.494 C21.01,33.126 21.01,34.151 21.642,34.783 C22.274,35.414 23.298,35.414 23.93,34.782 L25.51,33.203 C27.374,34.112 29.678,33.813 31.227,32.265 L45.125,18.367 L38.058,11.299" id="Fill-494" fill="#E8F3FF"></path>
                <path d="M30.996,18.361 L24.16,25.198 C22.611,26.746 22.312,29.051 23.222,30.915 L21.642,32.494 C21.01,33.126 21.01,34.151 21.642,34.783 C22.274,35.414 23.298,35.414 23.93,34.782 L25.51,33.203 C27.374,34.112 29.678,33.813 31.227,32.265 L45.125,18.367 L30.996,18.361" id="Fill-495" fill="#C3CCE9"></path>
                <path d="M48.176,15.316 L51.873,11.618 C53.825,9.667 53.825,6.503 51.873,4.551 C49.922,2.6 46.758,2.6 44.806,4.552 L41.109,8.248" id="Fill-496" fill="#E4C95C"></path>
                <path d="M48.176,16.066 C47.984,16.066 47.792,15.993 47.646,15.846 C47.353,15.553 47.353,15.079 47.646,14.786 L51.343,11.089 C52.145,10.286 52.587,9.219 52.587,8.085 C52.587,6.95 52.145,5.884 51.343,5.082 C49.687,3.425 46.993,3.425 45.336,5.082 L41.639,8.779 C41.346,9.072 40.872,9.072 40.579,8.779 C40.286,8.486 40.286,8.011 40.579,7.718 L44.276,4.021 C46.516,1.781 50.163,1.781 52.403,4.021 C53.489,5.106 54.087,6.549 54.087,8.085 C54.087,9.62 53.489,11.063 52.403,12.149 L48.706,15.846 C48.56,15.993 48.368,16.066 48.176,16.066" id="Fill-497" fill="#2D346A"></path>
                <path d="M41.109,8.249 L39.584,6.723 C38.741,5.881 37.375,5.881 36.533,6.723 C35.69,7.566 35.69,8.932 36.533,9.774 L46.651,19.892 C47.493,20.734 48.859,20.734 49.702,19.892 C50.544,19.049 50.544,17.683 49.702,16.841 L42.946,10.086" id="Fill-498" fill="#C3CCE9"></path>
                <path d="M48.176,21.272 C47.432,21.272 46.687,20.989 46.121,20.423 L36.002,10.304 C35.453,9.755 35.151,9.025 35.151,8.249 C35.151,7.471 35.454,6.742 36.002,6.193 C37.102,5.094 39.017,5.096 40.114,6.193 L41.64,7.718 C41.933,8.011 41.933,8.486 41.64,8.779 C41.347,9.072 40.872,9.072 40.579,8.779 L39.053,7.254 C38.521,6.722 37.595,6.721 37.063,7.254 C36.797,7.519 36.651,7.873 36.651,8.249 C36.651,8.625 36.797,8.978 37.063,9.244 L47.181,19.362 C47.73,19.911 48.622,19.907 49.172,19.362 C49.437,19.096 49.583,18.743 49.583,18.367 C49.583,17.991 49.437,17.637 49.171,17.372 L42.416,10.616 C42.123,10.323 42.123,9.848 42.416,9.555 C42.709,9.262 43.184,9.262 43.477,9.555 L50.232,16.311 C50.781,16.86 51.083,17.59 51.083,18.367 C51.083,19.143 50.781,19.873 50.232,20.423 C49.665,20.989 48.92,21.272 48.176,21.272" id="Fill-499" fill="#2D346A"></path>
                <path d="M22.786,36.006 C22.154,36.006 21.559,35.76 21.112,35.313 C20.665,34.866 20.418,34.271 20.418,33.639 C20.418,33.006 20.665,32.412 21.112,31.965 L22.332,30.744 C21.542,28.647 22.033,26.264 23.629,24.668 L37.528,10.769 C37.821,10.476 38.295,10.476 38.588,10.769 L45.656,17.837 C45.796,17.977 45.875,18.168 45.875,18.367 C45.875,18.566 45.796,18.756 45.656,18.897 L33.519,31.034 C33.226,31.327 32.751,31.327 32.458,31.034 C32.165,30.741 32.165,30.266 32.458,29.973 L44.065,18.367 L38.058,12.36 L24.69,25.728 C23.418,27.001 23.099,28.953 23.895,30.586 C24.036,30.874 23.978,31.218 23.752,31.445 L22.172,33.025 C21.834,33.364 21.834,33.914 22.172,34.253 C22.511,34.591 23.061,34.591 23.4,34.253 L24.979,32.672 C25.206,32.447 25.553,32.387 25.838,32.529 C27.473,33.327 29.425,33.006 30.697,31.734 C30.99,31.441 31.464,31.441 31.757,31.734 C32.05,32.027 32.05,32.502 31.757,32.795 C30.162,34.392 27.779,34.883 25.681,34.092 L24.46,35.313 C24.013,35.76 23.418,36.006 22.786,36.006" id="Fill-500" fill="#2D346A"></path>
                <path d="M24.943,43.391 C24.943,41.902 22.247,38.537 22.247,38.537 C22.247,38.537 19.55,41.902 19.55,43.391 C19.55,44.88 20.758,46.088 22.247,46.088 C23.736,46.088 24.943,44.88 24.943,43.391" id="Fill-501" fill="#C3CCE9"></path>
                <path d="M22.247,39.773 C21.305,41.061 20.3,42.696 20.3,43.391 C20.3,44.464 21.174,45.338 22.247,45.338 C23.32,45.338 24.193,44.464 24.193,43.391 C24.193,42.696 23.189,41.061 22.247,39.773 L22.247,39.773 Z M22.247,46.838 C20.347,46.838 18.8,45.292 18.8,43.391 C18.8,41.723 21.184,38.665 21.662,38.069 C21.804,37.891 22.019,37.788 22.247,37.788 C22.475,37.788 22.69,37.891 22.832,38.069 C23.31,38.665 25.693,41.723 25.693,43.391 C25.693,45.292 24.147,46.838 22.247,46.838 L22.247,46.838 Z" id="Fill-502" fill="#2D346A"></path>
                <polygon id="Fill-503" fill="#2D346A" points="30.997 19.117 45.125 19.117 45.125 17.617 30.997 17.617"></polygon>
                <path d="M63.135,17.063 C63.137,16.862 63.206,15.861 64.335,15.861 L64.337,15.861 L64.342,15.861 L64.346,15.861 C64.562,15.855 64.735,15.678 64.735,15.461 C64.735,15.24 64.557,15.062 64.337,15.061 C64.136,15.058 63.135,14.989 63.135,13.861 C63.135,13.64 62.956,13.461 62.735,13.461 C62.514,13.461 62.335,13.64 62.335,13.861 C62.335,14.989 61.334,15.058 61.133,15.061 C60.913,15.062 60.735,15.24 60.735,15.461 C60.735,15.682 60.914,15.861 61.135,15.861 C62.264,15.861 62.332,16.862 62.335,17.061 L62.335,17.063 C62.335,17.065 62.336,17.069 62.335,17.069 L62.335,17.073 C62.341,17.288 62.518,17.461 62.735,17.461 C62.955,17.461 63.134,17.283 63.135,17.063" id="Fill-504" fill="#FFFFFF"></path>
                <path d="M41.509,42.125 C41.511,41.924 41.581,40.923 42.709,40.923 L42.712,40.923 L42.716,40.923 L42.717,40.923 L42.718,40.923 L42.719,40.923 L42.721,40.923 C42.936,40.917 43.109,40.74 43.109,40.523 C43.109,40.303 42.931,40.124 42.711,40.123 C42.51,40.12 41.509,40.051 41.509,38.923 C41.509,38.702 41.33,38.523 41.109,38.523 C40.888,38.523 40.709,38.702 40.709,38.923 C40.709,40.051 39.708,40.12 39.507,40.123 C39.287,40.124 39.109,40.303 39.109,40.523 C39.109,40.744 39.288,40.923 39.509,40.923 C40.638,40.923 40.707,41.924 40.709,42.123 L40.709,42.125 C40.709,42.128 40.71,42.131 40.709,42.131 L40.709,42.133 L40.709,42.135 C40.715,42.35 40.892,42.523 41.109,42.523 C41.329,42.523 41.508,42.345 41.509,42.125" id="Fill-505" fill="#E4C95C"></path>
                <path d="M7.635,10.804 C7.637,10.603 7.706,9.602 8.835,9.602 L8.837,9.602 L8.842,9.602 L8.846,9.602 C9.062,9.595 9.235,9.419 9.235,9.202 C9.235,8.981 9.057,8.803 8.837,8.802 C8.636,8.799 7.635,8.73 7.635,7.602 C7.635,7.381 7.456,7.202 7.235,7.202 C7.014,7.202 6.835,7.381 6.835,7.602 C6.835,8.73 5.834,8.799 5.633,8.802 C5.413,8.803 5.235,8.981 5.235,9.202 C5.235,9.423 5.414,9.602 5.635,9.602 C6.764,9.602 6.832,10.603 6.835,10.802 L6.835,10.804 C6.835,10.806 6.836,10.81 6.835,10.81 L6.835,10.813 C6.841,11.029 7.018,11.202 7.235,11.202 C7.455,11.202 7.634,11.024 7.635,10.804" id="Fill-506" fill="#FFFFFF"></path>
                <path d="M1.935,42.324 C1.936,42.223 1.97,41.723 2.535,41.723 L2.54,41.723 C2.648,41.72 2.735,41.631 2.735,41.523 C2.735,41.413 2.646,41.323 2.536,41.323 C2.435,41.322 1.935,41.287 1.935,40.723 C1.935,40.612 1.845,40.523 1.735,40.523 C1.624,40.523 1.535,40.612 1.535,40.723 C1.535,41.287 1.034,41.322 0.934,41.323 C0.824,41.323 0.735,41.413 0.735,41.523 C0.735,41.633 0.824,41.723 0.935,41.723 C1.499,41.723 1.534,42.224 1.535,42.323 L1.535,42.324 L1.535,42.327 L1.535,42.328 L1.535,42.329 C1.538,42.436 1.626,42.523 1.735,42.523 C1.845,42.523 1.934,42.434 1.935,42.324" id="Fill-507" fill="#FFFFFF"></path>
                <path d="M47.423,29.301 C47.424,29.201 47.459,28.7 48.023,28.7 L48.028,28.7 C48.136,28.697 48.223,28.609 48.223,28.5 C48.223,28.39 48.134,28.301 48.024,28.3 C47.923,28.299 47.423,28.265 47.423,27.7 C47.423,27.59 47.333,27.5 47.223,27.5 C47.112,27.5 47.023,27.59 47.023,27.7 C47.023,28.265 46.523,28.299 46.422,28.3 C46.312,28.301 46.223,28.39 46.223,28.5 C46.223,28.611 46.312,28.7 46.423,28.7 C46.988,28.7 47.022,29.201 47.023,29.3 L47.023,29.302 C47.023,29.303 47.024,29.304 47.024,29.304 C47.023,29.304 47.023,29.305 47.023,29.305 L47.023,29.306 C47.026,29.414 47.114,29.5 47.223,29.5 C47.333,29.5 47.422,29.411 47.423,29.301" id="Fill-508" fill="#E4C95C"></path>
                <path d="M60.935,46.351 C60.936,46.25 60.97,45.75 61.535,45.75 L61.54,45.75 C61.648,45.747 61.735,45.659 61.735,45.55 C61.735,45.44 61.646,45.351 61.536,45.35 C61.435,45.349 60.935,45.314 60.935,44.75 C60.935,44.639 60.845,44.55 60.735,44.55 C60.624,44.55 60.535,44.639 60.535,44.75 C60.535,45.314 60.034,45.349 59.934,45.35 C59.824,45.351 59.735,45.44 59.735,45.55 C59.735,45.66 59.824,45.75 59.935,45.75 C60.499,45.75 60.534,46.251 60.535,46.35 L60.535,46.351 L60.535,46.354 L60.535,46.356 C60.538,46.463 60.626,46.55 60.735,46.55 C60.845,46.55 60.934,46.461 60.935,46.351" id="Fill-509" fill="#FFFFFF"></path>
                <path d="M15.141,27.066 C15.142,26.965 15.176,26.465 15.741,26.465 L15.746,26.465 C15.854,26.462 15.941,26.373 15.941,26.265 C15.941,26.155 15.852,26.066 15.742,26.065 C15.641,26.064 15.141,26.029 15.141,25.465 C15.141,25.354 15.051,25.265 14.941,25.265 C14.83,25.265 14.741,25.354 14.741,25.465 C14.741,26.029 14.24,26.064 14.14,26.065 C14.03,26.066 13.941,26.155 13.941,26.265 C13.941,26.376 14.03,26.465 14.141,26.465 C14.705,26.465 14.739,26.966 14.741,27.065 L14.741,27.066 L14.741,27.069 L14.741,27.071 C14.744,27.178 14.832,27.265 14.941,27.265 C15.051,27.265 15.14,27.176 15.141,27.066" id="Fill-510" fill="#E4C95C"></path>
            </g>
        </g>
    </g>
</svg>