<?xml version="1.0" encoding="UTF-8" standalone="no"?>
<svg width="65px" height="58px" viewBox="0 0 65 58" version="1.1" xmlns="http://www.w3.org/2000/svg" xmlns:xlink="http://www.w3.org/1999/xlink">
    <!-- Generator: Sketch 47.1 (45422) - http://www.bohemiancoding.com/sketch -->
    <title>make</title>
    <desc>Created with Sketch.</desc>
    <defs></defs>
    <g id="Page-1" stroke="none" stroke-width="1" fill="none" fill-rule="evenodd">
        <g id="25-Design-Shape-Icons" transform="translate(-491.000000, -315.000000)">
            <g id="make" transform="translate(491.000000, 315.000000)">
                <path d="M60.235,27.691 C60.235,12.504 47.923,0.191 32.735,0.191 C17.547,0.191 5.235,12.504 5.235,27.691 C5.235,37.087 9.95,45.378 17.139,50.338 L48.33,50.338 C55.52,45.378 60.235,37.087 60.235,27.691" id="Fill-428" fill="#FFFFFF"></path>
                <path d="M50.529,51.089 L14.94,51.089 C14.526,51.089 14.19,50.753 14.19,50.339 C14.19,49.924 14.526,49.589 14.94,49.589 L50.529,49.589 C50.943,49.589 51.279,49.924 51.279,50.339 C51.279,50.753 50.943,51.089 50.529,51.089" id="Fill-429" fill="#2D346A"></path>
                <path d="M44.359,54.324 L21.109,54.324 C20.695,54.324 20.359,53.988 20.359,53.574 C20.359,53.16 20.695,52.824 21.109,52.824 L44.359,52.824 C44.773,52.824 45.109,53.16 45.109,53.574 C45.109,53.988 44.773,54.324 44.359,54.324" id="Fill-430" fill="#FFFFFF"></path>
                <path d="M33.049,57.559 L28.376,57.559 C27.962,57.559 27.626,57.223 27.626,56.809 C27.626,56.395 27.962,56.059 28.376,56.059 L33.049,56.059 C33.463,56.059 33.799,56.395 33.799,56.809 C33.799,57.223 33.463,57.559 33.049,57.559" id="Fill-431" fill="#FFFFFF"></path>
                <path d="M37.149,57.559 L35.901,57.559 C35.487,57.559 35.151,57.223 35.151,56.809 C35.151,56.395 35.487,56.059 35.901,56.059 L37.149,56.059 C37.563,56.059 37.899,56.395 37.899,56.809 C37.899,57.223 37.563,57.559 37.149,57.559" id="Fill-432" fill="#FFFFFF"></path>
                <polyline id="Fill-433" fill="#C3CCE9" points="12.517 18.627 21.654 9.489 53.006 40.841 43.869 49.979 12.517 18.627"></polyline>
                <path d="M29.754,21.033 C29.561,21.033 29.37,20.96 29.224,20.813 C28.931,20.52 28.931,20.046 29.224,19.753 L30.414,18.562 C30.707,18.269 31.182,18.269 31.475,18.562 C31.768,18.855 31.768,19.33 31.475,19.623 L30.284,20.813 C30.138,20.96 29.946,21.033 29.754,21.033" id="Fill-434" fill="#FFFFFF"></path>
                <path d="M23.525,14.803 C23.333,14.803 23.142,14.73 22.995,14.584 C22.702,14.291 22.702,13.816 22.995,13.523 L24.185,12.334 C24.478,12.04 24.953,12.042 25.246,12.334 C25.539,12.627 25.539,13.101 25.246,13.394 L24.056,14.584 C23.909,14.73 23.717,14.803 23.525,14.803" id="Fill-435" fill="#FFFFFF"></path>
                <path d="M35.983,27.261 C35.791,27.261 35.6,27.188 35.453,27.042 C35.16,26.749 35.16,26.274 35.453,25.981 L36.644,24.792 C36.937,24.499 37.412,24.5 37.704,24.792 C37.997,25.085 37.997,25.559 37.704,25.852 L36.514,27.042 C36.367,27.188 36.175,27.261 35.983,27.261" id="Fill-436" fill="#FFFFFF"></path>
                <path d="M42.213,33.491 C42.021,33.491 41.829,33.418 41.683,33.271 C41.39,32.978 41.39,32.504 41.683,32.211 L42.872,31.02 C43.164,30.728 43.639,30.726 43.933,31.02 C44.226,31.313 44.226,31.788 43.933,32.081 L42.743,33.271 C42.597,33.418 42.405,33.491 42.213,33.491" id="Fill-437" fill="#FFFFFF"></path>
                <path d="M32.158,24.858 C31.967,24.858 31.774,24.785 31.628,24.638 C31.335,24.345 31.335,23.871 31.628,23.578 L33.528,21.676 C33.821,21.384 34.296,21.384 34.589,21.676 C34.882,21.969 34.882,22.444 34.589,22.737 L32.688,24.638 C32.542,24.785 32.351,24.858 32.158,24.858" id="Fill-438" fill="#2D346A"></path>
                <path d="M25.93,18.629 C25.737,18.629 25.546,18.555 25.399,18.409 C25.106,18.116 25.106,17.641 25.399,17.348 L27.3,15.448 C27.593,15.155 28.067,15.155 28.36,15.448 C28.653,15.741 28.653,16.216 28.36,16.509 L26.46,18.409 C26.313,18.555 26.122,18.629 25.93,18.629" id="Fill-439" fill="#2D346A"></path>
                <path d="M38.388,31.087 C38.195,31.087 38.004,31.013 37.857,30.867 C37.564,30.574 37.564,30.099 37.857,29.806 L39.758,27.906 C40.051,27.613 40.525,27.613 40.818,27.906 C41.111,28.199 41.111,28.674 40.818,28.967 L38.918,30.867 C38.771,31.013 38.58,31.087 38.388,31.087" id="Fill-440" fill="#2D346A"></path>
                <path d="M44.617,37.316 C44.425,37.316 44.233,37.243 44.087,37.096 C43.794,36.803 43.794,36.329 44.087,36.036 L45.987,34.135 C46.28,33.842 46.755,33.842 47.048,34.135 C47.341,34.428 47.341,34.903 47.048,35.196 L45.147,37.096 C45.001,37.243 44.81,37.316 44.617,37.316" id="Fill-441" fill="#2D346A"></path>
                <path d="M48.441,39.72 C48.249,39.72 48.058,39.647 47.911,39.501 C47.618,39.208 47.618,38.733 47.911,38.44 L49.102,37.25 C49.394,36.957 49.869,36.957 50.162,37.25 C50.455,37.543 50.455,38.017 50.162,38.31 L48.972,39.501 C48.825,39.647 48.634,39.72 48.441,39.72" id="Fill-442" fill="#FFFFFF"></path>
                <path d="M43.869,50.728 C43.677,50.728 43.485,50.655 43.339,50.509 L11.986,19.157 C11.846,19.016 11.767,18.826 11.767,18.627 C11.767,18.427 11.846,18.237 11.986,18.096 L16.489,13.593 C16.782,13.3 17.257,13.3 17.55,13.593 C17.843,13.886 17.843,14.361 17.55,14.654 L13.577,18.627 L43.869,48.918 L51.946,40.841 L21.654,10.549 L19.867,12.337 C19.574,12.63 19.1,12.63 18.807,12.337 C18.514,12.044 18.514,11.569 18.807,11.276 L21.124,8.959 C21.417,8.666 21.892,8.666 22.185,8.959 L53.537,40.31 C53.678,40.451 53.757,40.641 53.757,40.841 C53.757,41.04 53.678,41.23 53.537,41.371 L44.399,50.509 C44.253,50.655 44.061,50.728 43.869,50.728" id="Fill-443" fill="#2D346A"></path>
                <path d="M21.36,18.582 C21.36,17.478 20.464,16.582 19.36,16.582 C18.255,16.582 17.36,17.478 17.36,18.582 C17.36,19.687 18.255,20.582 19.36,20.582 C20.464,20.582 21.36,19.687 21.36,18.582" id="Fill-444" fill="#FBE2CB"></path>
                <path d="M19.359,17.332 C18.67,17.332 18.109,17.892 18.109,18.582 C18.109,19.271 18.67,19.832 19.359,19.832 C20.049,19.832 20.609,19.271 20.609,18.582 C20.609,17.892 20.049,17.332 19.359,17.332 L19.359,17.332 Z M19.359,21.332 C17.843,21.332 16.609,20.098 16.609,18.582 C16.609,17.065 17.843,15.832 19.359,15.832 C20.876,15.832 22.109,17.065 22.109,18.582 C22.109,20.098 20.876,21.332 19.359,21.332 L19.359,21.332 Z" id="Fill-445" fill="#2D346A"></path>
                <polyline id="Fill-446" fill="#E8F3FF" points="45.746 12.79 38.121 14.523 12.463 40.182 22.314 50.032 47.972 24.374 50.869 11.626 45.746 12.79"></polyline>
                <polyline id="Fill-447" fill="#FFFFFF" points="45.746 12.79 38.121 14.523 47.972 24.374 49.705 16.749"></polyline>
                <path d="M49.705,16.749 L50.869,11.626 L45.746,12.79 C45.958,13.726 46.423,14.616 47.151,15.344 C47.879,16.073 48.769,16.537 49.705,16.749" id="Fill-448" fill="#E4C95C"></path>
                <path d="M15.747,44.216 C15.555,44.216 15.363,44.142 15.217,43.996 C14.924,43.703 14.924,43.228 15.217,42.935 L38.398,19.753 C38.691,19.46 39.166,19.46 39.459,19.753 C39.752,20.046 39.752,20.52 39.459,20.813 L16.277,43.996 C16.131,44.142 15.939,44.216 15.747,44.216" id="Fill-449" fill="#2D346A"></path>
                <polyline id="Fill-450" fill="#2D346A" points="19.56 47.279 18.5 46.218 44.158 20.56 45.219 21.621 19.56 47.279"></polyline>
                <path d="M38.121,14.523 L47.972,24.374" id="Fill-451" fill="#FFFFFF"></path>
                <polyline id="Fill-452" fill="#2D346A" points="47.441 24.904 37.591 15.053 38.651 13.993 48.502 23.843 47.441 24.904"></polyline>
                <path d="M45.746,12.79 C45.958,13.726 46.423,14.616 47.151,15.344 C47.879,16.073 48.769,16.537 49.705,16.749" id="Fill-453" fill="#E4C95C"></path>
                <path d="M49.54,17.48 C48.431,17.23 47.421,16.675 46.621,15.875 C45.821,15.075 45.266,14.066 45.015,12.957 L46.477,12.625 C46.666,13.458 47.083,14.216 47.682,14.814 C48.281,15.414 49.038,15.83 49.87,16.017 L49.54,17.48" id="Fill-454" fill="#2D346A"></path>
                <path d="M13.523,40.181 L22.313,48.971 L47.288,23.997 L49.874,12.621 L38.498,15.207 L13.523,40.181 L13.523,40.181 Z M22.313,50.782 C22.114,50.782 21.924,50.703 21.783,50.562 L11.933,40.712 C11.64,40.419 11.64,39.944 11.933,39.651 L37.591,13.993 C37.69,13.893 37.817,13.823 37.955,13.792 L50.703,10.894 C50.949,10.836 51.217,10.913 51.399,11.095 C51.582,11.277 51.657,11.541 51.601,11.792 L48.703,24.54 C48.672,24.677 48.602,24.804 48.502,24.904 L22.844,50.562 C22.703,50.703 22.513,50.782 22.313,50.782 L22.313,50.782 Z" id="Fill-455" fill="#2D346A"></path>
                <path d="M12.968,32.385 C12.965,32.184 12.896,31.183 11.768,31.183 L11.765,31.183 L11.76,31.183 L11.759,31.183 L11.758,31.183 L11.756,31.183 C11.541,31.177 11.368,31 11.368,30.783 C11.368,30.562 11.546,30.384 11.766,30.383 C11.967,30.381 12.968,30.311 12.968,29.183 C12.968,28.962 13.147,28.783 13.368,28.783 C13.589,28.783 13.768,28.962 13.768,29.183 C13.768,30.311 14.768,30.381 14.97,30.383 C15.19,30.384 15.368,30.562 15.368,30.783 C15.368,31.004 15.189,31.183 14.968,31.183 C13.838,31.183 13.77,32.184 13.768,32.383 L13.768,32.385 C13.767,32.388 13.767,32.391 13.768,32.391 L13.768,32.394 C13.761,32.61 13.585,32.783 13.368,32.783 C13.147,32.783 12.969,32.605 12.968,32.385" id="Fill-456" fill="#E4C95C"></path>
                <path d="M53.329,26.69 C53.328,26.589 53.293,26.089 52.729,26.089 L52.723,26.089 C52.615,26.086 52.529,25.997 52.529,25.889 C52.529,25.779 52.618,25.689 52.728,25.689 C52.828,25.688 53.329,25.653 53.329,25.089 C53.329,24.978 53.418,24.889 53.529,24.889 C53.639,24.889 53.729,24.978 53.729,25.089 C53.729,25.653 54.229,25.688 54.33,25.689 C54.44,25.689 54.529,25.779 54.529,25.889 C54.529,25.999 54.439,26.089 54.329,26.089 C53.764,26.089 53.73,26.59 53.729,26.689 L53.729,26.69 C53.729,26.691 53.728,26.693 53.728,26.693 L53.729,26.693 L53.729,26.695 C53.726,26.802 53.637,26.889 53.529,26.889 C53.419,26.889 53.329,26.8 53.329,26.69" id="Fill-457" fill="#E4C95C"></path>
                <path d="M59.535,45.324 C59.534,45.223 59.499,44.722 58.935,44.722 L58.929,44.722 C58.821,44.719 58.735,44.631 58.735,44.523 C58.735,44.412 58.824,44.323 58.934,44.323 C59.034,44.321 59.535,44.287 59.535,43.722 C59.535,43.612 59.624,43.523 59.735,43.523 C59.845,43.523 59.935,43.612 59.935,43.722 C59.935,44.287 60.435,44.321 60.536,44.323 C60.646,44.323 60.735,44.412 60.735,44.523 C60.735,44.633 60.645,44.722 60.535,44.722 C59.97,44.722 59.936,45.223 59.935,45.323 L59.935,45.324 C59.935,45.325 59.934,45.327 59.934,45.327 L59.935,45.327 L59.935,45.328 C59.932,45.436 59.843,45.523 59.735,45.523 C59.625,45.523 59.535,45.433 59.535,45.324" id="Fill-458" fill="#FFFFFF"></path>
                <path d="M6.535,47.324 C6.534,47.223 6.499,46.722 5.935,46.722 L5.929,46.722 C5.821,46.719 5.735,46.631 5.735,46.523 C5.735,46.412 5.824,46.323 5.934,46.323 C6.034,46.321 6.535,46.287 6.535,45.722 C6.535,45.612 6.624,45.523 6.735,45.523 C6.845,45.523 6.935,45.612 6.935,45.722 C6.935,46.287 7.435,46.321 7.536,46.323 C7.646,46.323 7.735,46.412 7.735,46.523 C7.735,46.633 7.645,46.722 7.535,46.722 C6.97,46.722 6.936,47.223 6.935,47.323 L6.935,47.324 C6.935,47.325 6.934,47.327 6.934,47.327 L6.935,47.327 L6.935,47.328 C6.932,47.436 6.843,47.523 6.735,47.523 C6.625,47.523 6.535,47.433 6.535,47.324" id="Fill-459" fill="#FFFFFF"></path>
                <path d="M62.335,14.602 C62.332,14.401 62.263,13.4 61.135,13.4 L61.132,13.4 L61.127,13.4 L61.126,13.4 L61.125,13.4 L61.123,13.4 C60.908,13.394 60.735,13.217 60.735,13 C60.735,12.78 60.913,12.601 61.133,12.6 C61.334,12.598 62.335,12.529 62.335,11.4 C62.335,11.179 62.514,11 62.735,11 C62.956,11 63.135,11.179 63.135,11.4 C63.135,12.529 64.136,12.598 64.337,12.6 C64.557,12.601 64.735,12.78 64.735,13 C64.735,13.221 64.556,13.4 64.335,13.4 C63.205,13.4 63.137,14.402 63.135,14.6 L63.135,14.602 C63.134,14.605 63.134,14.608 63.135,14.608 L63.135,14.612 C63.129,14.827 62.952,15 62.735,15 C62.514,15 62.336,14.822 62.335,14.602" id="Fill-460" fill="#FFFFFF"></path>
                <path d="M1.535,11.801 C1.534,11.701 1.499,11.2 0.935,11.2 L0.929,11.2 C0.821,11.197 0.735,11.109 0.735,11 C0.735,10.89 0.824,10.801 0.934,10.8 C1.034,10.799 1.535,10.764 1.535,10.2 C1.535,10.09 1.624,10 1.735,10 C1.845,10 1.935,10.09 1.935,10.2 C1.935,10.764 2.435,10.799 2.536,10.8 C2.646,10.801 2.735,10.89 2.735,11 C2.735,11.111 2.645,11.2 2.535,11.2 C1.97,11.2 1.936,11.701 1.935,11.8 L1.935,11.801 C1.935,11.803 1.934,11.804 1.934,11.804 C1.935,11.804 1.935,11.805 1.935,11.805 L1.935,11.806 C1.932,11.914 1.843,12 1.735,12 C1.625,12 1.535,11.911 1.535,11.801" id="Fill-461" fill="#FFFFFF"></path>
                <path d="M30.501,9.602 C30.499,9.401 30.429,8.4 29.301,8.4 L29.298,8.4 L29.294,8.4 L29.293,8.4 L29.292,8.4 L29.291,8.4 L29.289,8.4 C29.074,8.394 28.901,8.217 28.901,8 C28.901,7.78 29.079,7.601 29.299,7.6 C29.5,7.598 30.501,7.529 30.501,6.4 C30.501,6.179 30.68,6 30.901,6 C31.122,6 31.301,6.179 31.301,6.4 C31.301,7.529 32.302,7.598 32.503,7.6 C32.723,7.601 32.901,7.78 32.901,8 C32.901,8.221 32.722,8.4 32.501,8.4 C31.372,8.4 31.303,9.402 31.301,9.6 L31.301,9.602 C31.301,9.605 31.3,9.608 31.301,9.608 L31.301,9.61 L31.301,9.612 C31.295,9.827 31.118,10 30.901,10 C30.681,10 30.502,9.822 30.501,9.602" id="Fill-462" fill="#E4C95C"></path>
            </g>
        </g>
    </g>
</svg>