<?xml version="1.0" encoding="UTF-8" standalone="no"?>
<svg width="65px" height="60px" viewBox="0 0 65 60" version="1.1" xmlns="http://www.w3.org/2000/svg" xmlns:xlink="http://www.w3.org/1999/xlink">
    <!-- Generator: Sketch 47.1 (45422) - http://www.bohemiancoding.com/sketch -->
    <title>teach</title>
    <desc>Created with Sketch.</desc>
    <defs></defs>
    <g id="Page-1" stroke="none" stroke-width="1" fill="none" fill-rule="evenodd">
        <g id="25-Design-Shape-Icons" transform="translate(-179.000000, -397.000000)">
            <g id="teach" transform="translate(179.000000, 397.000000)">
                <path d="M3.135,12.804 C3.137,12.603 3.206,11.602 4.335,11.602 L4.337,11.602 L4.342,11.602 L4.346,11.602 C4.562,11.595 4.735,11.419 4.735,11.202 C4.735,10.981 4.557,10.803 4.337,10.802 C4.136,10.799 3.135,10.73 3.135,9.602 C3.135,9.381 2.956,9.202 2.735,9.202 C2.514,9.202 2.335,9.381 2.335,9.602 C2.335,10.73 1.334,10.799 1.133,10.802 C0.913,10.803 0.735,10.981 0.735,11.202 C0.735,11.423 0.914,11.602 1.135,11.602 C2.264,11.602 2.332,12.603 2.335,12.802 L2.335,12.804 C2.335,12.806 2.336,12.81 2.335,12.81 L2.335,12.813 C2.341,13.029 2.518,13.202 2.735,13.202 C2.955,13.202 3.134,13.024 3.135,12.804" id="Fill-511" fill="#FFFFFF"></path>
                <path d="M60.235,29.691 C60.235,14.504 47.923,2.191 32.735,2.191 C17.547,2.191 5.235,14.504 5.235,29.691 C5.235,39.087 9.95,47.378 17.139,52.338 L48.33,52.338 C55.52,47.378 60.235,39.087 60.235,29.691" id="Fill-512" fill="#FFFFFF"></path>
                <path d="M53.529,53.089 L11.941,53.089 C11.527,53.089 11.191,52.753 11.191,52.339 C11.191,51.924 11.527,51.589 11.941,51.589 L53.529,51.589 C53.943,51.589 54.279,51.924 54.279,52.339 C54.279,52.753 53.943,53.089 53.529,53.089" id="Fill-513" fill="#2D346A"></path>
                <path d="M44.36,56.324 L21.11,56.324 C20.696,56.324 20.36,55.988 20.36,55.574 C20.36,55.16 20.696,54.824 21.11,54.824 L44.36,54.824 C44.774,54.824 45.11,55.16 45.11,55.574 C45.11,55.988 44.774,56.324 44.36,56.324" id="Fill-514" fill="#FFFFFF"></path>
                <path d="M33.048,59.559 L28.376,59.559 C27.962,59.559 27.626,59.223 27.626,58.809 C27.626,58.395 27.962,58.059 28.376,58.059 L33.048,58.059 C33.462,58.059 33.798,58.395 33.798,58.809 C33.798,59.223 33.462,59.559 33.048,59.559" id="Fill-515" fill="#FFFFFF"></path>
                <path d="M37.149,59.559 L35.901,59.559 C35.487,59.559 35.151,59.223 35.151,58.809 C35.151,58.395 35.487,58.059 35.901,58.059 L37.149,58.059 C37.563,58.059 37.899,58.395 37.899,58.809 C37.899,59.223 37.563,59.559 37.149,59.559" id="Fill-516" fill="#FFFFFF"></path>
                <path d="M11.635,26.48 C11.636,26.38 11.67,25.88 12.235,25.88 L12.24,25.88 C12.348,25.876 12.435,25.788 12.435,25.679 C12.435,25.569 12.346,25.48 12.236,25.48 C12.135,25.478 11.635,25.444 11.635,24.88 C11.635,24.769 11.545,24.679 11.435,24.679 C11.324,24.679 11.235,24.769 11.235,24.88 C11.235,25.444 10.734,25.478 10.634,25.48 C10.524,25.48 10.435,25.569 10.435,25.679 C10.435,25.79 10.524,25.88 10.635,25.88 C11.199,25.88 11.234,26.38 11.235,26.48 C11.235,26.48 11.235,26.48 11.235,26.481 L11.235,26.484 L11.235,26.485 C11.238,26.593 11.326,26.679 11.435,26.679 C11.545,26.679 11.634,26.59 11.635,26.48" id="Fill-517" fill="#E4C95C"></path>
                <path d="M55.729,34.665 C55.73,34.565 55.765,34.064 56.329,34.064 L56.334,34.064 C56.442,34.061 56.529,33.973 56.529,33.864 C56.529,33.754 56.44,33.665 56.33,33.664 C56.229,33.663 55.729,33.628 55.729,33.064 C55.729,32.954 55.639,32.864 55.529,32.864 C55.418,32.864 55.329,32.954 55.329,33.064 C55.329,33.628 54.828,33.663 54.728,33.664 C54.618,33.665 54.529,33.754 54.529,33.864 C54.529,33.975 54.618,34.064 54.729,34.064 C55.294,34.064 55.328,34.565 55.329,34.664 L55.329,34.666 L55.329,34.668 L55.329,34.669 L55.329,34.67 C55.332,34.778 55.42,34.864 55.529,34.864 C55.639,34.864 55.728,34.775 55.729,34.665" id="Fill-518" fill="#E4C95C"></path>
                <path d="M5.435,48.351 C5.436,48.25 5.47,47.75 6.035,47.75 L6.04,47.75 C6.148,47.747 6.235,47.659 6.235,47.55 C6.235,47.44 6.146,47.351 6.036,47.35 C5.935,47.349 5.435,47.314 5.435,46.75 C5.435,46.639 5.345,46.55 5.235,46.55 C5.124,46.55 5.035,46.639 5.035,46.75 C5.035,47.314 4.534,47.349 4.434,47.35 C4.324,47.351 4.235,47.44 4.235,47.55 C4.235,47.66 4.324,47.75 4.435,47.75 C4.999,47.75 5.034,48.251 5.035,48.35 L5.035,48.351 L5.035,48.354 L5.035,48.356 C5.038,48.463 5.126,48.55 5.235,48.55 C5.345,48.55 5.434,48.461 5.435,48.351" id="Fill-519" fill="#FFFFFF"></path>
                <path d="M58.435,12.724 C58.436,12.623 58.47,12.123 59.035,12.123 L59.04,12.123 C59.148,12.12 59.235,12.032 59.235,11.923 C59.235,11.813 59.146,11.724 59.036,11.723 C58.935,11.722 58.435,11.687 58.435,11.123 C58.435,11.012 58.345,10.923 58.235,10.923 C58.124,10.923 58.035,11.012 58.035,11.123 C58.035,11.687 57.534,11.722 57.434,11.723 C57.324,11.724 57.235,11.813 57.235,11.923 C57.235,12.034 57.324,12.123 57.435,12.123 C57.999,12.123 58.034,12.624 58.035,12.723 L58.035,12.724 L58.035,12.727 L58.035,12.729 C58.038,12.836 58.126,12.923 58.235,12.923 C58.345,12.923 58.434,12.834 58.435,12.724" id="Fill-520" fill="#FFFFFF"></path>
                <polyline id="Fill-521" fill="#E8F3FF" points="36.61 7.304 15.499 7.304 15.499 38.483 42.78 38.483 42.78 7.304 39.61 7.304"></polyline>
                <path d="M42.78,39.233 L15.499,39.233 C15.085,39.233 14.749,38.897 14.749,38.483 L14.749,7.304 C14.749,6.89 15.085,6.554 15.499,6.554 L36.61,6.554 C37.024,6.554 37.36,6.89 37.36,7.304 C37.36,7.718 37.024,8.054 36.61,8.054 L16.249,8.054 L16.249,37.733 L42.03,37.733 L42.03,8.054 L39.61,8.054 C39.196,8.054 38.86,7.718 38.86,7.304 C38.86,6.89 39.196,6.554 39.61,6.554 L42.78,6.554 C43.194,6.554 43.53,6.89 43.53,7.304 L43.53,38.483 C43.53,38.897 43.194,39.233 42.78,39.233" id="Fill-522" fill="#2D346A"></path>
                <polygon id="Fill-523" fill="#FFFFFF" points="20.118 33.864 38.161 33.864 38.161 11.923 20.118 11.923"></polygon>
                <path d="M20.648,29.895 L19.587,28.835 L27.413,21.009 C27.694,20.727 28.192,20.727 28.473,21.009 L34.537,27.073 L37.631,23.979 L38.691,25.04 L35.067,28.664 C34.786,28.945 34.288,28.945 34.007,28.664 L27.943,22.599 L20.648,29.895" id="Fill-524" fill="#C3CCE9"></path>
                <path d="M38.161,34.614 L25.359,34.614 C24.945,34.614 24.609,34.278 24.609,33.864 C24.609,33.45 24.945,33.114 25.359,33.114 L37.411,33.114 L37.411,12.673 L20.868,12.673 L20.868,33.114 L22.359,33.114 C22.773,33.114 23.109,33.45 23.109,33.864 C23.109,34.278 22.773,34.614 22.359,34.614 L20.118,34.614 C19.704,34.614 19.368,34.278 19.368,33.864 L19.368,11.923 C19.368,11.509 19.704,11.173 20.118,11.173 L38.161,11.173 C38.575,11.173 38.911,11.509 38.911,11.923 L38.911,33.864 C38.911,34.278 38.575,34.614 38.161,34.614" id="Fill-525" fill="#2D346A"></path>
                <polygon id="Fill-526" fill="#C3CCE9" points="26.83 7.304 31.449 7.304 31.449 1.531 26.83 1.531"></polygon>
                <path d="M27.58,6.554 L30.699,6.554 L30.699,2.281 L27.58,2.281 L27.58,6.554 Z M31.449,8.054 L26.83,8.054 C26.416,8.054 26.08,7.718 26.08,7.304 L26.08,1.531 C26.08,1.117 26.416,0.781 26.83,0.781 L31.449,0.781 C31.863,0.781 32.199,1.117 32.199,1.531 L32.199,7.304 C32.199,7.718 31.863,8.054 31.449,8.054 L31.449,8.054 Z" id="Fill-527" fill="#2D346A"></path>
                <polygon id="Fill-528" fill="#C3CCE9" points="19.326 45.988 38.954 45.988 38.954 42.524 19.326 42.524"></polygon>
                <path d="M20.076,45.238 L38.204,45.238 L38.204,43.274 L20.076,43.274 L20.076,45.238 Z M38.954,46.738 L19.326,46.738 C18.912,46.738 18.576,46.402 18.576,45.988 L18.576,42.524 C18.576,42.11 18.912,41.774 19.326,41.774 L38.954,41.774 C39.368,41.774 39.704,42.11 39.704,42.524 L39.704,45.988 C39.704,46.402 39.368,46.738 38.954,46.738 L38.954,46.738 Z" id="Fill-529" fill="#2D346A"></path>
                <polyline id="Fill-530" fill="#C3CCE9" points="24.521 38.483 19.902 38.483 14.129 52.338 18.747 52.338 24.521 38.483"></polyline>
                <path d="M15.254,51.589 L18.248,51.589 L23.395,39.233 L20.402,39.233 L15.254,51.589 L15.254,51.589 Z M18.748,53.089 L14.129,53.089 C13.878,53.089 13.644,52.964 13.505,52.755 C13.366,52.546 13.34,52.282 13.436,52.05 L19.21,38.195 C19.327,37.915 19.6,37.733 19.902,37.733 L24.52,37.733 C24.771,37.733 25.005,37.858 25.144,38.067 C25.284,38.276 25.309,38.54 25.213,38.771 L19.44,52.627 C19.323,52.907 19.05,53.089 18.748,53.089 L18.748,53.089 Z" id="Fill-531" fill="#2D346A"></path>
                <polyline id="Fill-532" fill="#C3CCE9" points="33.758 38.483 38.376 38.483 44.15 52.338 39.531 52.338 33.758 38.483"></polyline>
                <path d="M40.031,51.589 L43.024,51.589 L37.876,39.233 L34.883,39.233 L40.031,51.589 L40.031,51.589 Z M44.169,53.089 C44.163,53.088 44.156,53.089 44.149,53.089 L39.531,53.089 C39.228,53.089 38.956,52.907 38.839,52.627 L33.065,38.771 C32.969,38.54 32.995,38.276 33.134,38.067 C33.273,37.858 33.507,37.733 33.758,37.733 L38.376,37.733 C38.679,37.733 38.952,37.915 39.069,38.195 L44.781,51.904 C44.868,52.027 44.919,52.176 44.919,52.339 C44.919,52.753 44.583,53.089 44.169,53.089 L44.169,53.089 Z" id="Fill-533" fill="#2D346A"></path>
                <path d="M33.389,18.198 C32.7,18.198 32.139,18.759 32.139,19.448 C32.139,20.137 32.7,20.698 33.389,20.698 C34.079,20.698 34.639,20.137 34.639,19.448 C34.639,18.759 34.079,18.198 33.389,18.198 L33.389,18.198 Z M33.389,22.198 C31.873,22.198 30.639,20.965 30.639,19.448 C30.639,17.931 31.873,16.698 33.389,16.698 C34.906,16.698 36.139,17.931 36.139,19.448 C36.139,20.965 34.906,22.198 33.389,22.198 L33.389,22.198 Z" id="Fill-534" fill="#C3CCE9"></path>
                <path d="M47.093,47.878 C47.093,51.421 48.282,52.253 48.933,52.253 C49.585,52.253 50.774,51.421 50.774,47.878 L50.774,28.465 L47.093,28.465 L47.093,47.878" id="Fill-535" fill="#E8F3FF"></path>
                <polyline id="Fill-536" fill="#C3CCE9" points="47.74 22.894 47.093 28.465 50.774 28.465 50.127 22.894 47.74 22.894"></polyline>
                <path d="M50.774,33.438 C50.36,33.438 50.024,33.102 50.024,32.688 L50.024,28.466 L49.382,22.98 C49.334,22.568 49.629,22.196 50.041,22.148 C50.455,22.105 50.825,22.395 50.873,22.806 L51.519,28.379 L51.524,32.688 C51.524,33.102 51.188,33.438 50.774,33.438" id="Fill-537" fill="#2D346A"></path>
                <path d="M48.934,53.004 C48.501,53.004 46.343,52.756 46.343,47.878 L46.343,28.466 L46.995,22.806 C47.042,22.395 47.412,22.105 47.826,22.148 C48.238,22.196 48.533,22.568 48.485,22.98 L47.838,28.552 L47.843,47.878 C47.843,50.858 48.717,51.504 48.934,51.504 C49.15,51.504 50.024,50.858 50.024,47.878 L50.024,35.688 C50.024,35.274 50.36,34.938 50.774,34.938 C51.188,34.938 51.524,35.274 51.524,35.688 L51.524,47.878 C51.524,52.756 49.366,53.004 48.934,53.004" id="Fill-538" fill="#2D346A"></path>
                <polygon id="Fill-539" fill="#2D346A" points="47.093 29.216 50.774 29.216 50.774 27.716 47.093 27.716"></polygon>
                <path d="M51.341,20.808 C51.341,17.64 48.933,14.153 48.933,14.153 C48.933,17.427 46.526,18.023 46.526,20.808 C46.526,22.138 47.604,23.215 48.933,23.215 C50.263,23.215 51.341,22.138 51.341,20.808" id="Fill-540" fill="#E4C95C"></path>
                <path d="M49.312,16.314 C49.036,17.056 48.645,17.643 48.281,18.189 C47.72,19.033 47.276,19.699 47.276,20.808 C47.276,21.722 48.02,22.466 48.934,22.466 C49.847,22.466 50.591,21.722 50.591,20.808 C50.591,19.235 49.924,17.539 49.312,16.314 L49.312,16.314 Z M48.934,23.966 C47.193,23.966 45.776,22.549 45.776,20.808 C45.776,19.245 46.444,18.243 47.033,17.358 C47.624,16.469 48.184,15.63 48.184,14.153 C48.184,13.825 48.397,13.535 48.71,13.437 C49.025,13.339 49.365,13.457 49.551,13.727 C49.654,13.878 52.091,17.445 52.091,20.808 C52.091,22.549 50.674,23.966 48.934,23.966 L48.934,23.966 Z" id="Fill-541" fill="#2D346A"></path>
                <path d="M63.135,44.126 C63.137,43.925 63.206,42.924 64.335,42.924 L64.337,42.924 L64.342,42.924 L64.346,42.924 C64.562,42.918 64.735,42.741 64.735,42.524 C64.735,42.304 64.557,42.125 64.337,42.124 C64.136,42.122 63.135,42.053 63.135,40.924 C63.135,40.703 62.956,40.524 62.735,40.524 C62.514,40.524 62.335,40.703 62.335,40.924 C62.335,42.053 61.334,42.122 61.133,42.124 C60.913,42.125 60.735,42.304 60.735,42.524 C60.735,42.745 60.914,42.924 61.135,42.924 C62.264,42.924 62.332,43.926 62.335,44.124 L62.335,44.126 C62.335,44.129 62.336,44.132 62.335,44.132 L62.335,44.134 L62.335,44.136 C62.341,44.351 62.518,44.524 62.735,44.524 C62.955,44.524 63.134,44.346 63.135,44.126" id="Fill-542" fill="#FFFFFF"></path>
            </g>
        </g>
    </g>
</svg>